<svg viewBox="0 0 495 500" fill="none" xmlns="http://www.w3.org/2000/svg">
<path d="M247.38 499.383C383.881 499.383 494.537 387.592 494.537 249.692C494.537 111.791 383.881 0 247.38 0C110.879 0 0.223389 111.791 0.223389 249.692C0.223389 387.592 110.879 499.383 247.38 499.383Z" fill="#EF5028"/>
<path d="M317.617 347.539C316.88 354.773 309.33 357.414 301.446 357.414C282.566 357.414 279.522 348.107 280.48 329.847C282.74 286.81 327.447 214.836 331.066 192.45C309.814 197.923 253.897 266.232 241.561 318.942C239.671 328.914 238.386 338.994 237.713 349.124C236.875 356.006 235.614 357.414 224.31 357.414C208.025 357.414 199.35 351.874 199.429 336.39C199.692 282.014 244.222 209.81 249.19 192.45C227.924 197.923 168.937 277.165 159.839 316.964C157.577 327.731 156.158 338.661 155.595 349.653C155.106 354.841 153.745 357.414 142.434 357.414C126.149 357.414 117.56 348.392 117.56 336.39C117.56 282.014 178.705 157.676 186.764 149.995C200.355 137.004 220.577 139.638 221.032 159.024C220.805 168.69 217.156 177.954 210.747 185.135C195.634 211.102 183.06 238.494 173.202 266.923H174.107C214.803 192.898 246.476 148.579 264.572 148.579C268.351 148.274 272.152 148.732 275.753 149.928C279.355 151.123 282.684 153.031 285.548 155.541C288.412 158.05 290.752 161.111 292.431 164.545C294.111 167.978 295.097 171.715 295.332 175.537C295.332 186.951 268.64 220.315 255.077 266.923H255.969C296.686 192.898 328.345 148.579 346.446 148.579C350.225 148.274 354.026 148.733 357.628 149.929C361.229 151.124 364.559 153.032 367.422 155.542C370.286 158.051 372.626 161.112 374.306 164.545C375.986 167.978 376.973 171.715 377.208 175.537C377.208 189.7 360.607 214.674 348.7 239.972C335.931 264.623 326.638 290.958 321.091 318.211C319.307 327.901 318.146 337.697 317.617 347.539Z" fill="white"/>
</svg>
