<svg xmlns="http://www.w3.org/2000/svg" viewBox="0 0 256 256"><defs><style>.a{fill:#ef5028;}.b{fill:#fff;}</style></defs><title>logo</title><rect class="a" width="256" height="256"/><path class="b" d="M163.52,177c-0.37,3.62-4.19,4.94-8.18,4.94-9.55,0-11.08-4.66-10.6-13.8,1.14-21.55,23.75-57.58,25.58-68.79-10.75,2.74-39,36.94-45.26,63.33-1.31,5.54-1.64,12.56-1.95,15.11-0.42,3.45-1.06,4.15-6.78,4.15-8.24,0-12.62-2.77-12.58-10.52,0.13-27.22,22.65-63.37,25.17-72.06-10.76,2.74-40.59,42.41-45.19,62.34A104.54,104.54,0,0,0,81.58,178c-0.25,2.6-.94,3.88-6.66,3.88-8.24,0-12.58-4.51-12.58-10.52,0-27.22,30.92-89.47,35-93.31,6.88-6.5,17.1-5.18,17.33,4.52,0.16,6.77-3.08,9.59-5.2,13.07-6,9.87-12.13,22.42-19,40.95h0.46c20.59-37.06,36.6-59.25,45.75-59.25,6.17,0,15.56,3.66,15.56,13.5,0,5.72-13.5,22.42-20.36,45.75h0.45C152.94,99.57,169,77.38,178.1,77.38c6.17,0,15.56,3.66,15.56,13.5,0,7.09-8.39,19.59-14.41,32.26-10.34,21.76-11.72,29.27-14,39.16C164.05,167.7,163.8,174.24,163.52,177Z"/></svg>