<svg width="180" height="120" viewBox="0 0 180 120" fill="none" xmlns="http://www.w3.org/2000/svg">
<path d="M150.316 35.1291L86.5372 95.2907C83.8539 95.7579 77.5314 92.5097 75.0437 91.054C73.3382 90.0546 68.6126 87.0888 68.341 85.2529C70.0465 75.7583 77.803 39.6048 77.803 39.6048C77.803 39.6048 61.899 55.0092 56.4021 60.8754C44.1156 73.9767 31.5792 88.0014 21.2155 102.7C17.435 108.055 14.2303 113.835 10.8301 119.44C8.71168 120.939 3.83401 114.465 2.92148 112.65C1.29197 109.446 0.292534 104.742 1.29197 101.222C1.91118 99.0495 7.26685 92.1295 8.95068 89.9025C23.0297 71.2826 39.7376 54.151 55.8806 37.5951C68.5257 25.3412 80.8556 12.7613 94.2611 1.28957C94.6522 0.952807 95.2388 0.941944 95.6516 1.26785L105.059 8.74188C105.45 9.04605 105.581 9.57836 105.374 10.0238C97.6505 27.5899 90.8717 45.8296 87.5041 64.8188C86.8305 68.621 86.0809 72.4558 86.2656 76.3232C86.7219 76.8772 96.2165 67.6433 97.1073 66.8286C117.053 48.4803 159.865 6.29761 165.601 0.648631C165.971 0.279275 166.557 0.235822 166.981 0.529134L177.008 7.51431C177.442 7.81849 177.594 8.37252 177.377 8.86137C175.748 12.4028 169.284 26.5362 166.59 33.7712C159.702 52.2933 147.807 87.0671 172.967 96.8007C173.857 97.1484 177.431 97.9305 179.018 98.4303C179.724 98.6475 180.017 99.4949 179.572 100.103C176.845 103.851 163.016 113.802 149.61 102.102C136.205 90.4022 140.3 64.2431 145.819 47.7307C147.22 43.5265 150.316 35.1508 150.316 35.1508V35.1291Z" fill="#121212"/>
</svg>
